#!OML:ASF F:\VICON\USERDATA\INSTALL\Justin_Nancy\Justin_Nancy.ASF
:FULLY-SPECIFIED
:DEGREES
456
root 9.69419 17.74 15.7086 117.858 92.7858 117.489
lowerback 7.58512 -0.0437937 -0.037015
upperback 0.374529 0.0857868 2.6824
thorax -3.87249 0.0824318 2.79181
lowerneck -16.696 -3.49148 -9.58179
upperneck 21.4997 -3.17784 4.5717
head 9.82413 -1.67126 2.78353
rclavicle 6.16232e-015 -2.46493e-014
rhumerus -29.3332 -18.9834 -76.0432
rradius 26.5349
rwrist 11.5599
rhand -14.7673 11.2753
rfingers 7.12502
rthumb 11.3891 -18.3954
lclavicle 6.16232e-015 -2.46493e-014
lhumerus -32.7417 16.2276 81.2728
lradius 24.5601
lwrist -8.81171
lhand -18.1412 25.1431
lfingers 7.12502
lthumb 8.13406 54.9666
rfemur -5.98618 7.02423 25.9422
rtibia 19.0558
rfoot -9.09733 -4.5131
rtoes 11.6828
lfemur -22.9862 -1.58731 -17.0367
ltibia 65.9933
lfoot 0.332256 -2.08049
ltoes 0.601886
457
root 9.8241 17.7195 15.7249 117.619 92.7852 117.355
lowerback 7.7008 -0.146579 -0.175438
upperback 0.527608 -0.0451616 2.98177
thorax -3.77196 0.0236984 3.19606
lowerneck -17.2906 -3.42911 -10.3184
upperneck 21.7806 -2.81033 4.52201
head 10.0222 -1.56707 2.93932
rclavicle 1.03368e-014 -4.53229e-014
rhumerus -28.4737 -16.9282 -76.3741
rradius 26.9209
rwrist 9.92808
rhand -14.8018 10.8203
rfingers 7.12502
rthumb 11.3559 -18.8523
lclavicle 1.03368e-014 -4.53229e-014
lhumerus -32.7978 17.3146 81.4952
lradius 24.404
lwrist -8.83598
lhand -18.2778 24.8625
lfingers 7.12502
lthumb 8.00222 54.691
rfemur -5.55849 7.14137 26.095
rtibia 19.4654
rfoot -9.60582 -4.80466
rtoes 10.9542
lfemur -23.6372 -1.96604 -17.0922
ltibia 65.4694
lfoot -0.825841 -1.14259
ltoes 1.12457
458
root 9.94678 17.7012 15.732 120.927 92.7355 120.557
lowerback 7.68138 0.0439483 -0.027271
upperback 0.546256 0.219784 2.95342
thorax -3.75612 0.1525 3.05361
lowerneck -17.4101 -3.60865 -10.642
upperneck 21.8303 -2.93393 4.44248
head 10.0802 -1.65995 2.94675
rclavicle -1.63997e-015 1.98785e-014
rhumerus -28.0608 -15.6265 -76.5528
rradius 27.4191
rwrist 8.18343
rhand -15.0231 10.6014
rfingers 7.12502
rthumb 11.1425 -19.0828
lclavicle -1.63997e-015 1.98785e-014
lhumerus -32.7866 17.4149 81.6699
lradius 24.2934
lwrist -9.16603
lhand -17.5324 24.0904
lfingers 7.12502
lthumb 8.72156 53.8902
rfemur -5.4345 7.3266 25.906
rtibia 19.9598
rfoot -10.2713 -4.38166
rtoes 13.4261
lfemur -24.5599 -1.6677 -17.2967
ltibia 64.7672
lfoot -1.84998 -0.71762
ltoes -1.97162
459
root 10.0694 17.6972 15.7459 124.585 93.0545 124.08
lowerback 7.69599 0.293413 0.385841
upperback 0.432536 0.573692 2.66549
thorax -3.89402 0.317828 2.48215
lowerneck -17.0716 -3.61159 -10.0877
upperneck 21.7217 -3.13947 4.47222
head 9.98192 -1.70568 2.83768
rclavicle -8.89561e-015 -3.57812e-014
rhumerus -28.0627 -15.8328 -77.0039
rradius 27.8225
rwrist 8.04727
rhand -14.6959 10.8704
rfingers 7.12502
rthumb 11.458 -18.7965
lclavicle -8.89561e-015 -3.57812e-014
lhumerus -33.0052 16.8411 81.3306
lradius 24.279
lwrist -9.33006
lhand -17.0784 23.7563
lfingers 7.12502
lthumb 9.15972 53.5373
rfemur -5.18149 8.08988 26.0184
rtibia 20.3092
rfoot -11.0218 -3.90328
rtoes 19.5837
lfemur -25.4203 -0.927894 -17.0975
ltibia 63.938
lfoot -3.01007 -0.278619
ltoes -5.10757
460
root 10.197 17.6829 15.77 127.553 93.3381 127.235
lowerback 8.00227 0.311067 0.158539
upperback 0.366577 0.576971 2.56359
thorax -4.13549 0.322883 2.50415
lowerneck -16.7537 -3.29586 -8.91214
upperneck 21.6839 -2.92543 3.94753
head 9.85912 -1.56994 2.48813
rclavicle -2.93207e-015 -2.06736e-014
rhumerus -27.9223 -14.9787 -77.8057
rradius 28.1859
rwrist 7.43083
rhand -14.5015 10.8647
rfingers 7.12502
rthumb 11.6455 -18.7917
lclavicle -2.93207e-015 -2.06736e-014
lhumerus -33.5374 16.5101 80.928
lradius 24.4664
lwrist -8.69373
lhand -18.1001 24.4063
lfingers 7.12502
lthumb 8.17375 54.2282
rfemur -4.65938 8.37016 26.4283
rtibia 20.7842
rfoot -11.7521 -4.1844
rtoes 20.8708
lfemur -25.7948 -0.59434 -16.9077
ltibia 62.9219
lfoot -4.2664 0.536441
ltoes -5.21503
